<svg width="18" height="15" viewBox="0 0 18 15" fill="none" xmlns="http://www.w3.org/2000/svg">
<path d="M2.45312 14.1016H15.0312C16.4375 14.1016 17.25 13.2891 17.25 11.6797V3.05469C17.25 1.45312 16.4297 0.640625 14.7969 0.640625H2.21875C0.8125 0.640625 0 1.44531 0 3.05469V11.6797C0 13.2969 0.820312 14.1016 2.45312 14.1016ZM7.69531 7.76562L1.79688 1.94531C1.96875 1.875 2.17188 1.83594 2.40625 1.83594H14.8438C15.0859 1.83594 15.2969 1.875 15.4688 1.96094L9.58594 7.76562C9.25 8.10156 8.94531 8.25 8.64062 8.25C8.32812 8.25 8.02344 8.10156 7.69531 7.76562ZM1.19531 11.6797V3.05469C1.19531 3 1.19531 3.02344 1.19531 2.97656L5.6875 7.38281L1.20312 11.8125C1.19531 11.7734 1.19531 11.7266 1.19531 11.6797ZM16.0547 3.0625V11.6875C16.0547 11.7188 16.0547 11.7578 16.0547 11.7891L11.5938 7.38281L16.0547 3C16.0547 3.0625 16.0547 3.0625 16.0547 3.0625ZM2.40625 12.9062C2.1875 12.9062 1.99219 12.875 1.83594 12.8047L6.50781 8.1875L7.01562 8.6875C7.5625 9.22656 8.08594 9.45312 8.64062 9.45312C9.1875 9.45312 9.71875 9.22656 10.2656 8.6875L10.7734 8.1875L15.4375 12.7969C15.2656 12.875 15.0703 12.9062 14.8438 12.9062H2.40625Z" fill="black"/>
</svg>
