<svg width="16" height="17" viewBox="0 0 16 17" fill="none" xmlns="http://www.w3.org/2000/svg">
<path d="M11.3672 16.0234C12.7344 16.0234 13.6328 15.6562 14.4219 14.7656C14.4844 14.7031 14.5469 14.6328 14.6016 14.5703C15.0703 14.0468 15.2891 13.5312 15.2891 13.039C15.2891 12.4765 14.9609 11.9531 14.2656 11.4687L11.9922 9.89058C11.2891 9.4062 10.4688 9.35151 9.8125 9.99995L9.21094 10.6015C9.03125 10.7812 8.875 10.789 8.70312 10.6796C8.28125 10.414 7.42969 9.67183 6.85156 9.0937C6.24219 8.49214 5.65625 7.82026 5.34375 7.32808C5.24219 7.14839 5.25 6.99995 5.42969 6.82026L6.02344 6.2187C6.67969 5.56245 6.625 4.73433 6.14062 4.03901L4.5625 1.76558C4.07812 1.07026 3.55469 0.749951 2.99219 0.742139C2.5 0.734326 1.98438 0.960889 1.46094 1.42964C1.39062 1.49214 1.32812 1.54683 1.26562 1.60151C0.375 2.39839 0.0078125 3.29683 0.0078125 4.64839C0.0078125 6.88276 1.38281 9.60151 3.90625 12.125C6.41406 14.6328 9.14062 16.0234 11.3672 16.0234ZM11.375 14.8203C9.38281 14.8593 6.82812 13.3281 4.80469 11.3125C2.76562 9.2812 1.16406 6.64058 1.20312 4.64839C1.21875 3.78901 1.52344 3.04683 2.13281 2.51558C2.1875 2.4687 2.22656 2.42964 2.28125 2.39058C2.51562 2.18745 2.76562 2.07808 2.99219 2.07808C3.21875 2.07808 3.42188 2.16401 3.57031 2.39839L5.08594 4.67183C5.25 4.91401 5.26562 5.18745 5.02344 5.42964L4.33594 6.11714C3.79688 6.6562 3.83594 7.31245 4.22656 7.83589C4.67188 8.43745 5.44531 9.31245 6.04688 9.9062C6.64062 10.5078 7.58594 11.3515 8.19531 11.8046C8.71875 12.1953 9.375 12.2343 9.91406 11.6953L10.6016 11.0078C10.8438 10.7656 11.1094 10.7812 11.3594 10.9375L13.6328 12.4531C13.8672 12.6093 13.9531 12.8046 13.9531 13.039C13.9531 13.2656 13.8438 13.5156 13.6406 13.75C13.5938 13.8046 13.5625 13.8437 13.5156 13.8984C12.9844 14.5078 12.2422 14.8046 11.375 14.8203Z" fill="black"/>
</svg>
