<svg width="249" height="48" viewBox="0 0 249 48" fill="none" xmlns="http://www.w3.org/2000/svg">
<path d="M6.64955 12.4467L0 23.9999H13.3248L6.64955 12.4467Z" fill="#E92727"/>
<path d="M26.6752 0.893433L20 12.4467H33.3504L26.6752 0.893433Z" fill="#E92727"/>
<path d="M19.9999 12.4467L13.3247 0.893433H26.6752L19.9999 12.4467Z" fill="#E92727"/>
<path d="M33.3505 12.4467L26.6753 23.9999H40.0001L33.3505 12.4467Z" fill="#E92727"/>
<path d="M26.6752 23.9999L20 12.4467H33.3504L26.6752 23.9999Z" fill="#E92727"/>
<path d="M13.3246 0.893433L6.64941 12.4467H19.9999L13.3246 0.893433Z" fill="#E92727"/>
<path d="M6.64955 35.5533L0 24H13.3248L6.64955 35.5533Z" fill="#E92727"/>
<path d="M26.6752 47.1065L20 35.5532H33.3504L26.6752 47.1065Z" fill="#E92727"/>
<path d="M19.9999 35.5532L13.3247 47.1065H26.6752L19.9999 35.5532Z" fill="#E92727"/>
<path d="M33.3505 35.5533L26.6753 24H40.0001L33.3505 35.5533Z" fill="#E92727"/>
<path d="M26.6752 24L20 35.5533H33.3504L26.6752 24Z" fill="#E92727"/>
<path d="M13.3246 47.1065L6.64941 35.5532H19.9999L13.3246 47.1065Z" fill="#E92727"/>
<path d="M49.743 16.3114H55.434V18.8734H53.019V33.4054H55.434V35.9674H49.743V16.3114ZM63.9214 20.4274C64.9714 20.4274 65.9234 20.6724 66.7774 21.1624C67.6454 21.6384 68.3244 22.3174 68.8144 23.1994C69.3044 24.0674 69.5494 25.0824 69.5494 26.2444C69.5494 27.4064 69.3044 28.4284 68.8144 29.3104C68.3244 30.1784 67.6454 30.8574 66.7774 31.3474C65.9234 31.8234 64.9714 32.0614 63.9214 32.0614C62.3674 32.0614 61.1844 31.5714 60.3724 30.5914V31.8934H57.2434V16.3114H60.5194V21.7924C61.3454 20.8824 62.4794 20.4274 63.9214 20.4274ZM63.3544 29.3734C64.1944 29.3734 64.8804 29.0934 65.4124 28.5334C65.9584 27.9594 66.2314 27.1964 66.2314 26.2444C66.2314 25.2924 65.9584 24.5364 65.4124 23.9764C64.8804 23.4024 64.1944 23.1154 63.3544 23.1154C62.5144 23.1154 61.8214 23.4024 61.2754 23.9764C60.7434 24.5364 60.4774 25.2924 60.4774 26.2444C60.4774 27.1964 60.7434 27.9594 61.2754 28.5334C61.8214 29.0934 62.5144 29.3734 63.3544 29.3734ZM77.1185 32.0614C75.9285 32.0614 74.8575 31.8164 73.9055 31.3264C72.9675 30.8224 72.2325 30.1294 71.7005 29.2474C71.1685 28.3654 70.9025 27.3644 70.9025 26.2444C70.9025 25.1244 71.1685 24.1234 71.7005 23.2414C72.2325 22.3594 72.9675 21.6734 73.9055 21.1834C74.8575 20.6794 75.9285 20.4274 77.1185 20.4274C78.3085 20.4274 79.3725 20.6794 80.3105 21.1834C81.2485 21.6734 81.9835 22.3594 82.5155 23.2414C83.0475 24.1234 83.3135 25.1244 83.3135 26.2444C83.3135 27.3644 83.0475 28.3654 82.5155 29.2474C81.9835 30.1294 81.2485 30.8224 80.3105 31.3264C79.3725 31.8164 78.3085 32.0614 77.1185 32.0614ZM77.1185 29.3734C77.9585 29.3734 78.6445 29.0934 79.1765 28.5334C79.7225 27.9594 79.9955 27.1964 79.9955 26.2444C79.9955 25.2924 79.7225 24.5364 79.1765 23.9764C78.6445 23.4024 77.9585 23.1154 77.1185 23.1154C76.2785 23.1154 75.5855 23.4024 75.0395 23.9764C74.4935 24.5364 74.2205 25.2924 74.2205 26.2444C74.2205 27.1964 74.4935 27.9594 75.0395 28.5334C75.5855 29.0934 76.2785 29.3734 77.1185 29.3734ZM89.8756 20.4274C91.6256 20.4274 92.9696 20.8474 93.9076 21.6874C94.8456 22.5134 95.3146 23.7664 95.3146 25.4464V31.8934H92.2486V30.4864C91.6326 31.5364 90.4846 32.0614 88.8046 32.0614C87.9366 32.0614 87.1806 31.9144 86.5366 31.6204C85.9066 31.3264 85.4236 30.9204 85.0876 30.4024C84.7516 29.8844 84.5836 29.2964 84.5836 28.6384C84.5836 27.5884 84.9756 26.7624 85.7596 26.1604C86.5576 25.5584 87.7826 25.2574 89.4346 25.2574H92.0386C92.0386 24.5434 91.8216 23.9974 91.3876 23.6194C90.9536 23.2274 90.3026 23.0314 89.4346 23.0314C88.8326 23.0314 88.2376 23.1294 87.6496 23.3254C87.0756 23.5074 86.5856 23.7594 86.1796 24.0814L85.0036 21.7924C85.6196 21.3584 86.3546 21.0224 87.2086 20.7844C88.0766 20.5464 88.9656 20.4274 89.8756 20.4274ZM89.6236 29.8564C90.1836 29.8564 90.6806 29.7304 91.1146 29.4784C91.5486 29.2124 91.8566 28.8274 92.0386 28.3234V27.1684H89.7916C88.4476 27.1684 87.7756 27.6094 87.7756 28.4914C87.7756 28.9114 87.9366 29.2474 88.2586 29.4994C88.5946 29.7374 89.0496 29.8564 89.6236 29.8564ZM101.409 22.0864C101.801 21.5404 102.326 21.1274 102.984 20.8474C103.656 20.5674 104.426 20.4274 105.294 20.4274V23.4514C104.93 23.4234 104.685 23.4094 104.559 23.4094C103.621 23.4094 102.886 23.6754 102.354 24.2074C101.822 24.7254 101.556 25.5094 101.556 26.5594V31.8934H98.2796V20.5954H101.409V22.0864ZM118.647 16.3114V31.8934H115.518V30.5914C114.706 31.5714 113.53 32.0614 111.99 32.0614C110.926 32.0614 109.96 31.8234 109.092 31.3474C108.238 30.8714 107.566 30.1924 107.076 29.3104C106.586 28.4284 106.341 27.4064 106.341 26.2444C106.341 25.0824 106.586 24.0604 107.076 23.1784C107.566 22.2964 108.238 21.6174 109.092 21.1414C109.96 20.6654 110.926 20.4274 111.99 20.4274C113.432 20.4274 114.559 20.8824 115.371 21.7924V16.3114H118.647ZM112.557 29.3734C113.383 29.3734 114.069 29.0934 114.615 28.5334C115.161 27.9594 115.434 27.1964 115.434 26.2444C115.434 25.2924 115.161 24.5364 114.615 23.9764C114.069 23.4024 113.383 23.1154 112.557 23.1154C111.717 23.1154 111.024 23.4024 110.478 23.9764C109.932 24.5364 109.659 25.2924 109.659 26.2444C109.659 27.1964 109.932 27.9594 110.478 28.5334C111.024 29.0934 111.717 29.3734 112.557 29.3734ZM120.482 35.9674V33.4054H122.876V18.8734H120.482V16.3114H126.152V35.9674H120.482Z" fill="white"/>
<path d="M142.708 32.1454C141.182 32.1454 139.803 31.8164 138.571 31.1584C137.353 30.5004 136.394 29.5974 135.694 28.4494C135.008 27.2874 134.665 25.9854 134.665 24.5434C134.665 23.1014 135.008 21.8064 135.694 20.6584C136.394 19.4964 137.353 18.5864 138.571 17.9284C139.803 17.2704 141.182 16.9414 142.708 16.9414C144.234 16.9414 145.606 17.2704 146.824 17.9284C148.042 18.5864 149.001 19.4964 149.701 20.6584C150.401 21.8064 150.751 23.1014 150.751 24.5434C150.751 25.9854 150.401 27.2874 149.701 28.4494C149.001 29.5974 148.042 30.5004 146.824 31.1584C145.606 31.8164 144.234 32.1454 142.708 32.1454ZM142.708 29.2474C143.576 29.2474 144.36 29.0514 145.06 28.6594C145.76 28.2534 146.306 27.6934 146.698 26.9794C147.104 26.2654 147.307 25.4534 147.307 24.5434C147.307 23.6334 147.104 22.8214 146.698 22.1074C146.306 21.3934 145.76 20.8404 145.06 20.4484C144.36 20.0424 143.576 19.8394 142.708 19.8394C141.84 19.8394 141.056 20.0424 140.356 20.4484C139.656 20.8404 139.103 21.3934 138.697 22.1074C138.305 22.8214 138.109 23.6334 138.109 24.5434C138.109 25.4534 138.305 26.2654 138.697 26.9794C139.103 27.6934 139.656 28.2534 140.356 28.6594C141.056 29.0514 141.84 29.2474 142.708 29.2474ZM164.458 20.5954V31.8934H161.35V30.5494C160.916 31.0394 160.398 31.4174 159.796 31.6834C159.194 31.9354 158.543 32.0614 157.843 32.0614C156.359 32.0614 155.183 31.6344 154.315 30.7804C153.447 29.9264 153.013 28.6594 153.013 26.9794V20.5954H156.289V26.4964C156.289 28.3164 157.052 29.2264 158.578 29.2264C159.362 29.2264 159.992 28.9744 160.468 28.4704C160.944 27.9524 161.182 27.1894 161.182 26.1814V20.5954H164.458ZM174.78 31.3474C174.458 31.5854 174.059 31.7674 173.583 31.8934C173.121 32.0054 172.631 32.0614 172.113 32.0614C170.769 32.0614 169.726 31.7184 168.984 31.0324C168.256 30.3464 167.892 29.3384 167.892 28.0084V23.3674H166.149V20.8474H167.892V18.0964H171.168V20.8474H173.982V23.3674H171.168V27.9664C171.168 28.4424 171.287 28.8134 171.525 29.0794C171.777 29.3314 172.127 29.4574 172.575 29.4574C173.093 29.4574 173.534 29.3174 173.898 29.0374L174.78 31.3474ZM180.42 32.0614C179.482 32.0614 178.565 31.9494 177.669 31.7254C176.773 31.4874 176.059 31.1934 175.527 30.8434L176.619 28.4914C177.123 28.8134 177.732 29.0794 178.446 29.2894C179.16 29.4854 179.86 29.5834 180.546 29.5834C181.932 29.5834 182.625 29.2404 182.625 28.5544C182.625 28.2324 182.436 28.0014 182.058 27.8614C181.68 27.7214 181.099 27.6024 180.315 27.5044C179.391 27.3644 178.628 27.2034 178.026 27.0214C177.424 26.8394 176.899 26.5174 176.451 26.0554C176.017 25.5934 175.8 24.9354 175.8 24.0814C175.8 23.3674 176.003 22.7374 176.409 22.1914C176.829 21.6314 177.431 21.1974 178.215 20.8894C179.013 20.5814 179.951 20.4274 181.029 20.4274C181.827 20.4274 182.618 20.5184 183.402 20.7004C184.2 20.8684 184.858 21.1064 185.376 21.4144L184.284 23.7454C183.29 23.1854 182.205 22.9054 181.029 22.9054C180.329 22.9054 179.804 23.0034 179.454 23.1994C179.104 23.3954 178.929 23.6474 178.929 23.9554C178.929 24.3054 179.118 24.5504 179.496 24.6904C179.874 24.8304 180.476 24.9634 181.302 25.0894C182.226 25.2434 182.982 25.4114 183.57 25.5934C184.158 25.7614 184.669 26.0764 185.103 26.5384C185.537 27.0004 185.754 27.6444 185.754 28.4704C185.754 29.1704 185.544 29.7934 185.124 30.3394C184.704 30.8854 184.088 31.3124 183.276 31.6204C182.478 31.9144 181.526 32.0614 180.42 32.0614ZM193.152 32.0614C191.962 32.0614 190.891 31.8164 189.939 31.3264C189.001 30.8224 188.266 30.1294 187.734 29.2474C187.202 28.3654 186.936 27.3644 186.936 26.2444C186.936 25.1244 187.202 24.1234 187.734 23.2414C188.266 22.3594 189.001 21.6734 189.939 21.1834C190.891 20.6794 191.962 20.4274 193.152 20.4274C194.342 20.4274 195.406 20.6794 196.344 21.1834C197.282 21.6734 198.017 22.3594 198.549 23.2414C199.081 24.1234 199.347 25.1244 199.347 26.2444C199.347 27.3644 199.081 28.3654 198.549 29.2474C198.017 30.1294 197.282 30.8224 196.344 31.3264C195.406 31.8164 194.342 32.0614 193.152 32.0614ZM193.152 29.3734C193.992 29.3734 194.678 29.0934 195.21 28.5334C195.756 27.9594 196.029 27.1964 196.029 26.2444C196.029 25.2924 195.756 24.5364 195.21 23.9764C194.678 23.4024 193.992 23.1154 193.152 23.1154C192.312 23.1154 191.619 23.4024 191.073 23.9764C190.527 24.5364 190.254 25.2924 190.254 26.2444C190.254 27.1964 190.527 27.9594 191.073 28.5334C191.619 29.0934 192.312 29.3734 193.152 29.3734ZM212.918 20.5954V31.8934H209.81V30.5494C209.376 31.0394 208.858 31.4174 208.256 31.6834C207.654 31.9354 207.003 32.0614 206.303 32.0614C204.819 32.0614 203.643 31.6344 202.775 30.7804C201.907 29.9264 201.473 28.6594 201.473 26.9794V20.5954H204.749V26.4964C204.749 28.3164 205.512 29.2264 207.038 29.2264C207.822 29.2264 208.452 28.9744 208.928 28.4704C209.404 27.9524 209.642 27.1894 209.642 26.1814V20.5954H212.918ZM219.082 22.0864C219.474 21.5404 219.999 21.1274 220.657 20.8474C221.329 20.5674 222.099 20.4274 222.967 20.4274V23.4514C222.603 23.4234 222.358 23.4094 222.232 23.4094C221.294 23.4094 220.559 23.6754 220.027 24.2074C219.495 24.7254 219.229 25.5094 219.229 26.5594V31.8934H215.953V20.5954H219.082V22.0864ZM230.273 32.0614C229.069 32.0614 227.984 31.8164 227.018 31.3264C226.066 30.8224 225.317 30.1294 224.771 29.2474C224.239 28.3654 223.973 27.3644 223.973 26.2444C223.973 25.1244 224.239 24.1234 224.771 23.2414C225.317 22.3594 226.066 21.6734 227.018 21.1834C227.984 20.6794 229.069 20.4274 230.273 20.4274C231.463 20.4274 232.499 20.6794 233.381 21.1834C234.277 21.6734 234.928 22.3804 235.334 23.3044L232.793 24.6694C232.205 23.6334 231.358 23.1154 230.252 23.1154C229.398 23.1154 228.691 23.3954 228.131 23.9554C227.571 24.5154 227.291 25.2784 227.291 26.2444C227.291 27.2104 227.571 27.9734 228.131 28.5334C228.691 29.0934 229.398 29.3734 230.252 29.3734C231.372 29.3734 232.219 28.8554 232.793 27.8194L235.334 29.2054C234.928 30.1014 234.277 30.8014 233.381 31.3054C232.499 31.8094 231.463 32.0614 230.273 32.0614ZM248.143 26.2864C248.143 26.3284 248.122 26.6224 248.08 27.1684H239.533C239.687 27.8684 240.051 28.4214 240.625 28.8274C241.199 29.2334 241.913 29.4364 242.767 29.4364C243.355 29.4364 243.873 29.3524 244.321 29.1844C244.783 29.0024 245.21 28.7224 245.602 28.3444L247.345 30.2344C246.281 31.4524 244.727 32.0614 242.683 32.0614C241.409 32.0614 240.282 31.8164 239.302 31.3264C238.322 30.8224 237.566 30.1294 237.034 29.2474C236.502 28.3654 236.236 27.3644 236.236 26.2444C236.236 25.1384 236.495 24.1444 237.013 23.2624C237.545 22.3664 238.266 21.6734 239.176 21.1834C240.1 20.6794 241.129 20.4274 242.263 20.4274C243.369 20.4274 244.37 20.6654 245.266 21.1414C246.162 21.6174 246.862 22.3034 247.366 23.1994C247.884 24.0814 248.143 25.1104 248.143 26.2864ZM242.284 22.9054C241.542 22.9054 240.919 23.1154 240.415 23.5354C239.911 23.9554 239.603 24.5294 239.491 25.2574H245.056C244.944 24.5434 244.636 23.9764 244.132 23.5564C243.628 23.1224 243.012 22.9054 242.284 22.9054Z" fill="#E92727"/>
</svg>
