<svg width="40" height="48" viewBox="0 0 40 48" fill="none" xmlns="http://www.w3.org/2000/svg">
<path d="M6.64955 12.4467L0 23.9999H13.3248L6.64955 12.4467Z" fill="#E92727"/>
<path d="M26.6752 0.893433L20 12.4467H33.3504L26.6752 0.893433Z" fill="#E92727"/>
<path d="M19.9999 12.4467L13.3247 0.893433H26.6752L19.9999 12.4467Z" fill="#E92727"/>
<path d="M33.3505 12.4467L26.6753 23.9999H40.0001L33.3505 12.4467Z" fill="#E92727"/>
<path d="M26.6752 23.9999L20 12.4467H33.3504L26.6752 23.9999Z" fill="#E92727"/>
<path d="M13.3246 0.893433L6.64941 12.4467H19.9999L13.3246 0.893433Z" fill="#E92727"/>
<path d="M6.64955 35.5533L0 24H13.3248L6.64955 35.5533Z" fill="#E92727"/>
<path d="M26.6752 47.1065L20 35.5532H33.3504L26.6752 47.1065Z" fill="#E92727"/>
<path d="M19.9999 35.5532L13.3247 47.1065H26.6752L19.9999 35.5532Z" fill="#E92727"/>
<path d="M33.3505 35.5533L26.6753 24H40.0001L33.3505 35.5533Z" fill="#E92727"/>
<path d="M26.6752 24L20 35.5533H33.3504L26.6752 24Z" fill="#E92727"/>
<path d="M13.3246 47.1065L6.64941 35.5532H19.9999L13.3246 47.1065Z" fill="#E92727"/>
</svg>
